# xmcd
# Track frame offsets:
# 150
# 19617
# 40777
# 57167
# 78860
# 95342
# 108242
# 137772
# 152270
# 171370
# 187530
# 201140
#
# Disc length: 2866 seconds
# Revision: 0
# Processed by: cddbd v1.5.2PL0 Copyright (c) Steve Scherf et al.
# Submitted via: VisiTrax 2.10.0.248 - For more info visit www.synapsa.com
#
DISCID=830b300c
DTITLE=Kilborn Alley Blues Band - Tear Chicago Down
DYEAR=2007
DGENRE=Blues
TTITLE0=I'm Spent
TTITLE1=Christmas in County
TTITLE2=Fire with Fire
TTITLE3=Crazier Things
TTITLE4=Come Home Soon
TTITLE5=Redneck in a Soul Band
TTITLE6=It's a Pity
TTITLE7=Tear Chicago Down
TTITLE8=The Weight on You
TTITLE9=Lay It Down
TTITLE10=She Don't Know
TTITLE11=Redneck in a Soul Band
EXTD=
EXTT0=
EXTT1=
EXTT2=
EXTT3=
EXTT4=
EXTT5=
EXTT6=
EXTT7=
EXTT8=
EXTT9=
EXTT10=
EXTT11=
PLAYORDER=
